<?xml version="1.0" encoding="utf-8"?>
<svg version="1.1" id="Слой_1" xmlns="http://www.w3.org/2000/svg" xmlns:xlink="http://www.w3.org/1999/xlink"
	 width="308.79999px" height="457px" viewBox="175 225 125 1"
	 xml:space="preserve">

<path class="st2" d="M290.79999,219.39996c-0.39996-0.09998-0.69995-0.09998-1.09998-0.09998
	c1.70001-3.40002,3.09998-7,4.09998-10.79999c1.40002-5.70001,2.10004-17.5-5.19995-19.20001
	c-2.30005-0.20001-4.20001,0.89996-6.10004,1.89996c-2.59998,1.5-5.19995,3-7.79999,4.60004
	c-1,0.59998-1.90002,1.20001-2.90002,1.79999c3.10004-4.89996,5.20001-10.5,5.70001-16.29999
	c0.29999-4.79999-0.09998-10.40002-3.89996-13.79999c-0.80005-0.5-1.70001-1-2.60004-1.20001c-1.09998-0.10004-2.20001,0-3.39996,0
	c-3.5,0.29999-6.70001,1.59998-9.80005,3.20001c-5.39996,2.5-10.5,5.5-15.5,8.69995c-3.89996,2.5-7.59998,5.10004-11.29999,7.80005
	c5-8,6.10004-17.80005,2.59998-21.80005c-2.89996-3.89996-8.39996-1.5-12,0c-0.64349,0.27582-2.45929,1.13776-3.4491,1.58667
	c0.07849-0.02203,0.16248-0.04333,0.24915-0.08667c-0.5,0.20001-1,0.40002-1.40002,0.60004
	c-0.79999,0.29999-1.59998,0.70001-2.40002,0.89996c-1.69995,0.90002-4.89996,1.70001-9,4.70001
	C201.20001,176,197,180.29999,193.20001,185c-3.40002,4-6.79999,7.89996-9.70001,12.39996
	c-3.63361,5.54126-5.19958,12.15509-5.45685,18.71747c-0.0033-0.08856-0.01526-0.00812-0.04315,0.38257
	c-0.09998,0.89996-0.09998,1.79999,0,2.79999c-0.39227,2.64795-0.48969,5.29584-0.11615,7.94379
	c-0.013-0.04791-0.03595-0.09589-0.08386-0.1438c0.10004,1,0.30005,2.10004,0.5,3c1.20001,5.5,4.5,9.60004,11.20001,8.30005
	c3.29999-0.90002,6.20001-2.5,9.20001-4.10004c-1.09998,1.79999-2.09998,3.70001-2.90002,5.60004
	c-3.19995,7.29999-5.5,22.79999,3.70001,26.29999c7.60004,1.59998,14.60004-3.20001,20.70001-7.29999
	c-1.40002,7.89996-0.70001,18,6.79999,19.59998c4.79999,0.29999,8.79999-2.89996,12.60004-5.5
	c1.59998-1.20001,3.29999-2.39996,4.89996-3.59998c-0.79999,5.59998-0.69995,13,5.30005,15c5.89996,0.29999,11.5-1.70001,16.89996-4
	c3.20001-1.5,6.60004-2.70001,9.40002-4.90002c5.09998-4.5,8.89996-10.70001,10.59998-17.29999c0,0,0,0,0-0.09998
	c4.79999-4.40002,8.5-9.90002,10.20001-17.29999C298.29999,233.79999,299.10004,222.39996,290.79999,219.39996z"/>
</svg>
