<?xml version="1.0" encoding="utf-8"?>
<!-- Generator: Adobe Illustrator 28.1.0, SVG Export Plug-In . SVG Version: 6.00 Build 0)  -->
<svg version="1.1" id="Слой_1" xmlns="http://www.w3.org/2000/svg" xmlns:xlink="http://www.w3.org/1999/xlink" x="0px" y="0px"
	 width="308.79999px" height="457px" viewBox="0 0 308.79999 457" style="enable-background:new 0 0 308.79999 457;"
	 xml:space="preserve">
<style type="text/css">
	.st0{fill:#751A33;}
	.st1{fill:#C54233;}
	.st2{fill:#4EA2A2;}
	.st3{fill:#1A8693;}
	.st4{fill:#EB8F33;}
</style>
<path class="st0" d="M150.89999,64.2c-0.5-0.8-1-1.5-1.5-2.2c0.8-2.1-0.7-5.5-1.59999-7.1c-0.40001-0.8-1.10001-1.9-1.90001-3
	C148.2,50.3,147.3,45.8,146,43.3c-1.7-3.5-4.10001-7-8-9c-0.5-0.2-0.89999-0.4-1.39999-0.5C135.7,32.5,134.7,31.2,133.5,30.1
	c-1.7-3.3-4.39999-6.3-7.7-8c-2.7-1-5.7-1.4-8.60001-1.9c-0.1,0-0.3,0-0.4-0.1c-0.3-0.3-0.5-0.5-0.8-0.8
	c-2.40001-2.5-6.40001-2.2-9.8-2.8c-4.2-0.7-8.5-1-12.7-0.2c-1.8,0.3-3.6,0.8-5.1,1.7c-2-1.5-4.6-2.5-7.3-2.8
	c-3.5-0.2-6.6,1.6-9.7,2.9c-5.1,2.4-8.3,5.2-8.6,10.5l0,0c-0.3,0.2-0.6,0.4-1,0.6c-1.5,0.9-3,1.8-4.4,2.7c-1.5-1.2-3.3-2-5.4-2.1
	c-1-0.1-2.8-0.4-2.9,0.8c-0.2,0.9-0.1,1.9,0.2,2.8c-0.1,0.1-0.2,0.2-0.2,0.3c-0.3,0.4-0.5,0.9-0.5,1.4c-2.3,1.1-4.5,2.3-6.1,4.2
	c-0.39999,0.6-0.5,1.1-0.60001,1.7C41,41.1,40.09999,41.3,39.5,42c-1.10001,0.9-1.60001,2.1-1.8,3.3c-0.2,0-0.39999,0.1-0.5,0.1
	c-1.8,0.2-3.39999,1.1-4.39999,2.5c-0.7,1.8-0.60001,3.7-0.2,5.6c-0.2,0.2-0.3,0.3-0.5,0.5c-2.39999,2.6-1.39999,6.3-0.3,9.3
	c-1.10001,3.3,0,7.2,2,10.7c-0.60001,5.5,2.8,12.7,7.3,17.4c1.10001,2.7,2.7,5.4,4.7,7.4c0.9,2.3,2.2,4.4,3.9,6.3
	c2.1,2.4,5.2,5.1,8.9,4.3c0.6-0.2,1.2-0.3,1.7-0.5c1.5,3.1,3.7,6.1,7,7.7c1.1,0.4,2.3,0.5,3.4,0.5c3.7,1.2,7.6,2.6,11.5,2.5
	c0.9-0.1,1.7-0.2,2.6-0.3c1.1,0.3,2.2,0.4,3.3,0.3c1,0.5,2,1,3.1,1.4c5,1.8,10.5,1.1,15.7,0.7c1.5-0.2,3.2,0,4.1-1.2
	c0.3-0.8,0.4-1.6,0.4-2.4c1-0.7,2.1-1.2,3.2-1.7c3-1.4,6.3-2.3,9.1-4c2.6-2.2,2.9-2.9,7.60001-5c2.90001-1.2,6.5-2.1,7.7-5.1
	c0.70001-1.4,1.3-2.9,1.70001-4.4C141,96.6,140.8,95.2,141.10001,93.8l0,0c2.2-4.5,3.60001-4,6.2-7.1c0.5-1.2,0.5-2.4,0.3-3.7
	c0.59999-1.1,1.29999-2.2,1.39999-3.5c0.2-0.2,0.39999-0.4,0.60001-0.6c0.59999-0.6,1-1.3,1.29999-2c1.20001-0.6,2-1.6,2.3-3.2
	C154,70.4,152.60001,67.1,150.89999,64.2z"/>
<path class="st1" d="M298.20001,69.4c-3.60001-2-7.40002-3.3-11.30002-4.3c0.80002,0.1,1.5,0.2,2.30002,0.3
	c4,0.3,8.39999,1.4,12-0.7c3-1.8,4.5-7,2.09998-9.7c-2.39996-1.6-5.5-1.3-8.29999-2.3c-4.89999-1.6-10.10001-1.6-15.20001-2.2
	c-5.29999-0.5-10.5-2.1-15.79999-2.7c4.29999,0.3,8.60001,0.5,12.89999,1c3.20001,0.3,6.39999,0.7,9.5,1
	c2.30002,0.1,4.70001,0.4,6.80002-0.4c3.09998-1.3,4.19998-5.3,3.69998-8.4c-0.39999-1.9-2-3.1-3.69998-3.9
	c-2.30002-1.2-4.80002-2-7.40002-2.6c-1-0.2-2.09998-0.5-3.09998-0.7c0.59998-0.2,1.19998-0.5,1.69998-0.8
	c2.39999-2,3.39999-5.9,2-8.8c-1-1.6-3-2.2-4.60001-3c-3.89999-1.6-8.09998-2.5-12.19998-3.5c-16.2-4.3-33.10001-4.8-49.60001-7
	c-3.5-0.1-7.5-0.9-10.59999,1.2c-2.3,1.9-3.59999,6.9-1,9c0.7,0.5,1.40001,0.8,2.09999,1.1c-2.7,0.6-5.39999,1.4-8,2.2
	c-1.2,0.4-2.39999,0.7-3.5,1.3c-1.29999,1-2.09999,2.7-2.29999,4.3c-0.60001,3.7,1.29999,4.9,4.7,5c3.09999,0.3,6.2,0.5,9.3,0.7
	c11.2,1,22.39999,1.1,33.59999,2.3c7.7,0.7,15.49998,1,23.3,1.9c-1.5-0.1-13.60001-0.7-18.39999-0.6
	c-14.70001,0.3-29.60001-1.8-44.3,0c-2.3,0.3-4.60001,0.7-6.8,1.2c-1.8,0.2-3,1.5-3.60001,3.1c-1.2,3.9-0.5,6.6,4,6.8
	c8.60001,1,17.20001,1.3,25.90001,1.8c-2.40001,0-4.90001,0.1-7.3,0.3c-3.39999,0.4-7.3,0.2-10.5,1.5
	c-2.39999,1.8-3.39999,5.8-1.7,8.3C205.3,62.6,205.8,62.8,206.3,63.1c-6.3,0.5-12.90001,1.7-19.3,3.2c-3.7,0.9-5,9.1-0.2,9.1
	c12.09999,0.9,24.09999,2.1,36.09999,4.1l0,0c-1.09999,0-2.09999,0.1-3.2,0.2c-5.59999,0.4-11.2,1.3-16.7,2.4
	c-2.5,0.7-5.2,0.7-7.60001,1.9c-2.29999,1.5-3.7,7.4-0.59999,8.6c8.5,1.6,17.2,2.5,25.8,3.5c-3.8,0.7-7.5,1.8-11.10001,3.2
	c-3.2,1.2-4.8,6.1-3,9c0.5,0.8,1.60001,1.1,2.39999,1.4C211.5,110.5,214.3,110.5,217,110.8c9.10001,0.9,18.2,2.2,27,4.5
	c-3.39999-0.6-6.89999-1.2-10.39999-1.5c-4.3-0.4-8.60001-0.8-12.90001-1c-1.59999,0-3.3-0.2-4.8,0.6c-2,1.7-3,5.7-1.29999,7.9
	c1.09999,0.9,2.59999,1,4,1.2c8.39999,1.1,16.39999,2.1,24.5,4.7c4.29999,1.10001,8.59999,1.99998,12.89999,2.7
	c-2.5-1.39999-5-2.8-7.5-4.2c-0.8-0.5-1.7-1-2.5-1.5c2.3,0.5,4.7,0.9,7,1.4c4.39999,0.8,8.79999,1.8,13.29999,1.4
	c4.80002-0.4,6.60001-8.3,2.5-10.8c-4.59998-3.1-9.89999-5-15.09998-6.8c-8.80002-3.2-18.10001-4.9-27.40001-6.1
	c2-0.2,3.8-0.2,5.3-0.2c14.5,0.8,28.89999,3,43.19998,5.9c2.80002,0.5,5.5,1.1,8.40002,1.1c1.29999,0,2.59998,0,3.59998-0.8
	c2.10001-1.9,2.90002-5.3,1.80002-7.9c-1.39999-1.7-1.10001-0.9-2.60001-1.9c-1.59998-0.8-3.19998-1.5-4.79999-2.2
	c-5.60001-2-11.5-2.8-17.40002-3.8c-7-1.4-14.09998-2.5-21.19998-3.2c-7.10001-1-14.3-1.9-21.39999-2.8c2.79999-0.1,5.5-0.1,8.2,0
	c17.39999,1.3,34.3,5.6,51.59999,7.6c4.39999,0,9.70001,0.8,13.39999-2.3c2.30002-2.2,3.20001-6.2,1.70001-9.1
	c-0.70001-0.9-2-1.7-3.60001-2.4c2.29999,0.3,4.60001,0.3,6.79999-0.2c3.20001-1.1,4.5-5.1,3.70001-8.2
	C302.29999,71.1,300,70.4,298.20001,69.4z M222.5,27.9c-0.39999,0-0.7-0.1-1.10001-0.1c3.10001-0.4,6.3-0.7,9.5-0.8
	C233.7,27,243.3,27.7,248.3,28.7c3,0.4,6.09999,1,9.09999,1.6c-2.59999-0.2-5.29999-0.4-7.89999-0.6
	C240.39999,28.8,231.5,28.3,222.5,27.9z M265.89999,77.9C252.3,76.8,238.8,74,225.39999,71.4C231.2,71.7,237,72.2,242.8,72.9
	c10.59999,1.1,21.09999,2.8,31.49998,5.2c1.30002,0.3,2.5,0.6,3.80002,0.8C273.20001,78.4,268.5,78.2,265.89999,77.9z"/>
<path class="st2" d="M290.79999,219.39996c-0.39996-0.09998-0.69995-0.09998-1.09998-0.09998
	c1.70001-3.40002,3.09998-7,4.09998-10.79999c1.40002-5.70001,2.10004-17.5-5.19995-19.20001
	c-2.30005-0.20001-4.20001,0.89996-6.10004,1.89996c-2.59998,1.5-5.19995,3-7.79999,4.60004
	c-1,0.59998-1.90002,1.20001-2.90002,1.79999c3.10004-4.89996,5.20001-10.5,5.70001-16.29999
	c0.29999-4.79999-0.09998-10.40002-3.89996-13.79999c-0.80005-0.5-1.70001-1-2.60004-1.20001c-1.09998-0.10004-2.20001,0-3.39996,0
	c-3.5,0.29999-6.70001,1.59998-9.80005,3.20001c-5.39996,2.5-10.5,5.5-15.5,8.69995c-3.89996,2.5-7.59998,5.10004-11.29999,7.80005
	c5-8,6.10004-17.80005,2.59998-21.80005c-2.89996-3.89996-8.39996-1.5-12,0c-0.64349,0.27582-2.45929,1.13776-3.4491,1.58667
	c0.07849-0.02203,0.16248-0.04333,0.24915-0.08667c-0.5,0.20001-1,0.40002-1.40002,0.60004
	c-0.79999,0.29999-1.59998,0.70001-2.40002,0.89996c-1.69995,0.90002-4.89996,1.70001-9,4.70001
	C201.20001,176,197,180.29999,193.20001,185c-3.40002,4-6.79999,7.89996-9.70001,12.39996
	c-3.63361,5.54126-5.19958,12.15509-5.45685,18.71747c-0.0033-0.08856-0.01526-0.00812-0.04315,0.38257
	c-0.09998,0.89996-0.09998,1.79999,0,2.79999c-0.39227,2.64795-0.48969,5.29584-0.11615,7.94379
	c-0.013-0.04791-0.03595-0.09589-0.08386-0.1438c0.10004,1,0.30005,2.10004,0.5,3c1.20001,5.5,4.5,9.60004,11.20001,8.30005
	c3.29999-0.90002,6.20001-2.5,9.20001-4.10004c-1.09998,1.79999-2.09998,3.70001-2.90002,5.60004
	c-3.19995,7.29999-5.5,22.79999,3.70001,26.29999c7.60004,1.59998,14.60004-3.20001,20.70001-7.29999
	c-1.40002,7.89996-0.70001,18,6.79999,19.59998c4.79999,0.29999,8.79999-2.89996,12.60004-5.5
	c1.59998-1.20001,3.29999-2.39996,4.89996-3.59998c-0.79999,5.59998-0.69995,13,5.30005,15c5.89996,0.29999,11.5-1.70001,16.89996-4
	c3.20001-1.5,6.60004-2.70001,9.40002-4.90002c5.09998-4.5,8.89996-10.70001,10.59998-17.29999c0,0,0,0,0-0.09998
	c4.79999-4.40002,8.5-9.90002,10.20001-17.29999C298.29999,233.79999,299.10004,222.39996,290.79999,219.39996z"/>
<path class="st3" d="M143.10001,347.70001c3.2-2.5,7.39999-4.5,9.2-8.39999c0.39999-1.60001,0-2.60001-1.90001-1.79999
	c-7.5,3.39999-13.89999,4.20001-20,5.39999c-4.7,1-10.39999,1.70001-15.49999,2.5c7.5-4.5,14.7-9.39999,21.8-14.60001
	c1.5-1.20001,3-2.20001,4.2-3.60001c0.3-0.29999-0.2-0.20001-0.39999-0.10001c-0.10001,0-0.2,0.10001-0.3,0.10001
	c-3.7,1.60001-7.59999,2.89999-11.39999,4.10001c-1.8,0.5-4.1,1-6.4,1.60001c2.4-1.60001,4.6-3.39999,6.8-5.29999
	c0.7-0.79999,1.5-2.10001,0.60001-3.10001c-0.2-0.20001-0.5-0.29999-0.8-0.29999c-1.4,0.10001-2.7,0.29999-4,0.5
	c-8.7,2.39999-19.2,3.29999-29.6,2.89999c-4.8-0.20001-9.6,0-14.4-0.5c-5.3-0.5-10.6-1.29999-15.9-1.5
	c-3.4,0-7.8-1.29999-10.1-0.29999c-4.2,2.10001-8.1,4.79999-12,7.39999c-1.60001,1.29999-3.8,2.29999-4.7,4.20001
	c-0.2,0.79999-0.39999,1.70001-0.10001,2.5c0.39999,0.89999,1.2,1.60001,2.10001,1.89999c1,0.10001,1.89999,0.10001,2.7,0.10001
	c-3.60001,2.29999-7.2,4.79999-10.60001,7.5c-0.7,0.70001-0.60001,1.89999-0.39999,2.79999c0.3,1.29999,1.10001,2.29999,2,3
	c0.89999,1.79999,2.3,3.29999,4,4.29999c1.89999,1.10001,3.89999,2,6,2.70001c-5,3.10001-10,6.29999-14.8,9.70001
	c-1.60001,1.39999-5.89999,3.5-2.2,5.29999c2.89999,1.60001,6.2,1.89999,9.39999,2.70001c6.2,1.70001,12.6,2.29999,19,2.5
	c1.6,0.10001,3.2,0.20001,4.8,0.20001c-0.8,0.5-1.6,1-2.4,1.5c-4.1,2.60001-8.1,5.20001-12,8c-2.3,1.70001-9.2,6.29999-5.7,9.29999
	c2.10001,1.39999,4.8,1.5,7.3,1.70001c4.6,0.39999,9.2-0.39999,13.8-1.29999c1.4-0.20001,2.8-0.5,4.2-0.70001
	c-1.8,1.10001-3.5,2.29999-5.2,3.39999c-3.3,2.5-7.2,4.29999-9.7,7.70001c-2.4,5.79999,7,6.10001,10.7,6.39999
	c7.4,0.39999,14.7-1.29999,22-1.89999c-1.9,1.20001-3.8,2.5-5.6,3.70001c-4.9,3.70001-16.5,9.20001-3.1,10.89999
	c3.2,0.29999,6.4,0.79999,9.5,0.60001c6.7-0.79999,13.2-2.5,19.7-4.29999c2.4-0.70001,4.7-1.39999,7-2.20001l0,0
	c0.9-0.20001,1.7-0.5,2.5-0.79999c5-2.39999,9.6-5.5,14.2-8.5c3.60001-2.5,7.60001-4.70001,10.70001-7.89999
	c1.79999-2.10001-1.60001-3.89999-3.3-4.60001c-3.90001-1.60001-8.10001-2-12.3-2.29999c4.3-2.29999,8.39999-5.29999,12.5-7.89999
	c2.5-1.60001,4.89999-3.29999,7.2-5.10001c1.10001-0.89999,2.5-1.79999,2.90001-3.29999
	c0.39999-3.10001-4.40001-4.39999-6.8-4.79999c-5.2-0.39999-10.3-0.20001-15.5,0.29999c3.39999-1.70001,6.7-3.79999,10-5.79999
	c5.59999-3.70001,11.5-7.10001,16.39999-11.60001c3.40001-4.10001-2.7-3.39999-5.2-3.29999c-4.5-0.10001-9,0.29999-13.39999,1.5
	c-4.90001,1.10001-9.70001,2.79999-14.70001,3.89999c-1.8,0.39999-9.5,1.5-13.3,1.79999c-1.5,0.10001-2.9,0.20001-4.4,0.29999
	c9.3-1.10001,18.3-3.29999,26.6-7.70001C131.10001,355.70001,137.10001,351.79999,143.10001,347.70001z"/>
<path class="st4" d="M152,239.3c-1-3.3-7-5.60001-12.2-7.3c0.89999-0.8,1.89999-1.60001,3-2.7c1.2-1.3,2.5-3.5,1.39999-5.10001
	c-0.59999-0.60001-1.3-1-2.09999-1.39999c2.09999-1.3,4-2.8,5.59999-4.60001c0.8-1.10001,1.8-2.39999,1.90001-3.8
	C149.5,213.2,149,212.2,148,211.5c-2.39999-2.10001-5.3-3.39999-8.2-4.8c-0.2-0.10001-0.40001-0.2-0.7-0.3
	c1-0.7,1.89999-1.5,2.7-2.3c0,0,0,0,0.09999,0c2.70001-2.2,7.40001-5.3,5.8-9.2c-1.09999-1.10001-2.5-1.89999-3.89999-2.5
	c0.59999-1.2,0.8-2.39999,0.39999-3.60001c-1.39999-1.7-3.39999-2.5-5.39999-3.5c0.89999-0.89999,1.7-1.89999,2.39999-3.10001
	c0.8-1.7,0.90001-3.10001,0.3-4.89999c-0.10001-0.39999-0.2-0.7-0.39999-1c0.29999-0.5,0.5-1.10001,0.7-1.7
	c-0.10001-2.8-3.2-2.5-5.8-2.10001c1.8-2.3,2.60001-4.7,0-6.2c-4.10001-1-8.4,0.2-12.4,1.10001c-1.3,0.3-2.7,0.7-4,1.10001
	c-1.1,0.2-2.1,0.39999-3.2,0.5c-0.3,0-0.59999,0-0.89999,0c-11.8-0.2-16.8-1.5-26.10001-4c-12.8-3.2-20.7-5.10001-32.8,1.8
	c-6.7,3.60001-13.3,7.60001-18.39999,13.2c-0.2,0.2-0.39999,0.39999-0.5,0.5c-2.5,2.39999-5.10001,4.7-6.89999,7.7
	c-1.89999,3.8-1.39999,7,2,9.5c0.89999,0.8,1.60001,1.8,2.3,2.8c-0.60001,1.39999-0.7,2.7-0.2,4.10001
	c0.5,0.8,1.2,1.39999,1.89999,1.89999c-2.2,2-3.60001,4.2-3,6.3C33.90001,213,34,213.2,34.2,213.40001
	c-1.60001,2.10001-2.60001,4.10001-1.89999,6.7c-1.60001,1.5-2.89999,3.10001-3.39999,5.2c0,0.8,0.10001,1.8,0.60001,2.39999
	c1,1,2.3,1.5,3.7,1.7c1.39999,0.3,2.7,0.5,3.89999,0.7c-1.60001,1.3-3,2.89999-4.10001,4.60001
	c-3.10001,6.10001,1.8,8.7,7.3,10.10001l0,0c-0.89999,1.2-2.7,3.5-1,4.7c0.60001,0.7,1.60001,0.8,2.5,0.7
	c2.9-0.10001,5.7-0.89999,8.6-1.2c1.4-0.2,2.7-0.39999,3.8-0.5c-4.6,2.8-10.4,7.39999-8.2,11.39999
	c1.3,1.39999,3.3,1.60001,5.1,1.89999c1.7,0.20001,3.4,0.29999,5.1,0.39999c-0.4,1-0.4,1.89999-0.1,2.89999
	c1.7,2.20001,4.7,2.5,7.1,3.70001c-0.7,1.29999-1.4,2.70001-0.7,4.10001c0.9,1.20001,2.2,1.60001,3.6,2
	c-0.4,0.70001-0.7,1.5-0.9,2.29999c-0.1,3.70001,6.9,2.60001,9.4,2.60001c4-0.20001,7.9-0.5,11.9-0.79999
	c0.7-0.10001,1.9-0.10001,2.6-0.20001C104.00001,278,120.7,278,132.70001,268c0.39999-0.39999,0.79999-0.79999,1.2-1.20001
	c0.39999-0.29999,0.8-0.70001,1.2-1c-0.2,0.10001-0.3,0.20001-0.5,0.39999c2.2-1.70001,4.2-3.79999,4.89999-6.5
	c0-0.70001-0.09999-1.20001-0.39999-1.70001c3.7-2.60001,8.10001-6.8,5.5-9.7c0.89999-0.60001,1.8-1.2,2.7-1.89999
	C149.39999,244.8,152.3,242.2,152,239.3z"/>
</svg>
